<svg width="24" height="24" viewBox="0 0 24 24" fill="none" xmlns="http://www.w3.org/2000/svg">
<path d="M21.0536 20.0462C21.3319 20.3245 21.3319 20.7756 21.0536 21.0539C20.7754 21.3321 20.3242 21.3321 20.046 21.0539L16.626 17.6339C16.3477 17.3556 16.3477 16.9045 16.626 16.6262C16.9042 16.348 17.3554 16.348 17.6336 16.6262L21.0536 20.0462ZM10.2898 17.8425C6.11867 17.8425 2.7373 14.4612 2.7373 10.29C2.7373 6.11892 6.11867 2.73755 10.2898 2.73755C14.4609 2.73755 17.8423 6.11892 17.8423 10.29C17.8423 14.4612 14.4609 17.8425 10.2898 17.8425ZM10.2898 16.4175C13.6739 16.4175 16.4173 13.6742 16.4173 10.29C16.4173 6.90592 13.6739 4.16255 10.2898 4.16255C6.90568 4.16255 4.1623 6.90592 4.1623 10.29C4.1623 13.6742 6.90568 16.4175 10.2898 16.4175ZM6.7748 9.72005C6.7748 9.98238 6.56214 10.195 6.2998 10.195C6.03747 10.195 5.8248 9.98238 5.8248 9.72005C5.8248 7.5689 7.56866 5.82505 9.7198 5.82505C9.98214 5.82505 10.1948 6.03771 10.1948 6.30005C10.1948 6.56238 9.98214 6.77505 9.7198 6.77505C8.09333 6.77505 6.7748 8.09357 6.7748 9.72005Z" fill="#666666"/>
</svg>
